Coordinates
version=1
nRows=65
nColumns=12
inDegrees=yes

Units are S.I. units (second, meters, Newtons, ...)
Angles are in degrees

endheader
time	SC_y	SC_z	SC_x	AC_y	AC_z	AC_x	GH_y	GH_z	GH_yy	EL_x	PS_y
       0.0               -49.8          28.47          60.45          34.92          3.925          14.11         -7.184          20.78         -28.46          50.79          140.0
   0.03134               -49.8          28.47          60.45          34.92          3.924          14.11         -7.194          20.77         -28.45          50.78          140.0
   0.06269               -49.8          28.47          60.44          34.93          3.923          14.11         -7.205          20.77         -28.45          50.78          140.0
   0.09403               -49.8          28.48          60.43          34.93          3.921          14.11         -7.217          20.77         -28.44          50.77          140.0
    0.1254               -49.8          28.48          60.43          34.93           3.92           14.1         -7.229          20.76         -28.43          50.76          139.9
    0.1567               -49.8          28.48          60.42          34.93          3.918           14.1         -7.242          20.76         -28.43          50.76          139.9
    0.1881               -49.8          28.48          60.42          34.93          3.917           14.1         -7.256          20.76         -28.42          50.75          139.9
    0.2194               -49.8          28.48          60.41          34.93          3.915           14.1         -7.271          20.75         -28.41          50.74          139.9
    0.2508               -49.8          28.49           60.4          34.94          3.913          14.09         -7.287          20.75          -28.4          50.73          139.9
    0.2821               -49.8          28.49          60.39          34.94          3.911          14.09         -7.304          20.74         -28.39          50.73          139.8
    0.3134              -49.79          28.49          60.38          34.94          3.908          14.08         -7.322          20.74         -28.38          50.72          139.8
    0.3448              -49.79          28.49          60.37          34.94          3.906          14.08         -7.342          20.73         -28.37          50.71          139.8
    0.3761              -49.79           28.5          60.36          34.95          3.903          14.08         -7.363          20.73         -28.36           50.7          139.7
    0.4075              -49.79           28.5          60.35          34.95            3.9          14.07         -7.386          20.72         -28.35          50.68          139.7
    0.4388              -49.79           28.5          60.34          34.95          3.897          14.07         -7.411          20.71         -28.34          50.67          139.7
    0.4702              -49.79          28.51          60.33          34.96          3.894          14.06         -7.438           20.7         -28.32          50.66          139.6
    0.5015              -49.79          28.51          60.31          34.96           3.89          14.05         -7.467           20.7         -28.31          50.64          139.6
    0.5328              -49.79          28.52           60.3          34.96          3.886          14.05         -7.499          20.69         -28.29          50.63          139.5
    0.5642              -49.78          28.52          60.28          34.97          3.882          14.04         -7.534          20.68         -28.27          50.61          139.5
    0.5955              -49.78          28.53          60.26          34.97          3.877          14.03         -7.572          20.67         -28.25          50.59          139.4
    0.6269              -49.78          28.53          60.24          34.98          3.872          14.02         -7.614          20.65         -28.23          50.57          139.3
    0.6582              -49.78          28.54          60.22          34.98          3.867          14.01          -7.66          20.64          -28.2          50.55          139.3
    0.6896              -49.78          28.55          60.19          34.99           3.86           14.0         -7.711          20.63         -28.17          50.52          139.2
    0.7209              -49.77          28.55          60.16           35.0          3.853          13.99         -7.767          20.61         -28.14          50.49          139.1
    0.7523              -49.77          28.56          60.13          35.01          3.846          13.98          -7.83          20.59         -28.11          50.46          139.0
    0.7836              -49.77          28.57           60.1          35.02          3.837          13.96           -7.9          20.57         -28.07          50.43          138.9
    0.8149              -49.76          28.58          60.06          35.03          3.827          13.94         -7.978          20.55         -28.03          50.39          138.8
    0.8463              -49.76           28.6          60.01          35.04          3.816          13.92         -8.066          20.53         -27.98          50.34          138.7
    0.8776              -49.75          28.61          59.97          35.05          3.804           13.9         -8.166           20.5         -27.93          50.29          138.5
     0.909              -49.75          28.63          59.91          35.06           3.79          13.88         -8.279          20.47         -27.87          50.24          138.3
    0.9403              -49.74          28.64          59.85          35.08          3.774          13.85         -8.408          20.43          -27.8          50.17          138.1
    0.9717              -49.73          28.66          59.77           35.1          3.756          13.82         -8.556          20.39         -27.72           50.1          137.9
     1.003              -49.72          28.69          59.69          35.12          3.734          13.78         -8.727          20.34         -27.63          50.01          137.6
     1.034              -49.71          28.72          59.59          35.15           3.71          13.74         -8.926          20.29         -27.52          49.91          137.3
     1.066               -49.7          28.75          59.48          35.18          3.681          13.69         -9.159          20.22         -27.39          49.79          137.0
     1.097              -49.69          28.79          59.34          35.21          3.647          13.63         -9.433          20.14         -27.25          49.66          136.5
     1.128              -49.67          28.83          59.18          35.25          3.607          13.56         -9.759          20.05         -27.07          49.49          136.0
      1.16              -49.65          28.89          58.99           35.3          3.559          13.48         -10.15          19.94         -26.86          49.29          135.4
     1.191              -49.63          28.96          58.75          35.36            3.5          13.38         -10.62          19.81         -26.61          49.06          134.7
     1.222               -49.6          29.04          58.47          35.44          3.429          13.25          -11.2          19.65          -26.3          48.77          133.8
     1.254              -49.57          29.14          58.12          35.53          3.341           13.1         -11.91          19.45         -25.91          48.41          132.7
     1.285              -49.52          29.26          57.68          35.64          3.231          12.91          -12.8           19.2         -25.43          47.96          131.3
     1.316              -49.47          29.42          57.12          35.78          3.092          12.67         -13.92          18.88         -24.83           47.4          129.6
     1.348               -49.4          29.62          56.42          35.97          2.916          12.36         -15.34          18.48         -24.07          46.68          127.4
     1.379               -49.3          29.88          55.52           36.2          2.691          11.97         -17.16          17.97         -23.09          45.77          124.6
      1.41              -49.19          30.21          54.37           36.5          2.402          11.47          -19.5          17.31         -21.83          44.59          121.0
     1.442              -49.04          30.63          52.89          36.88          2.033          10.83         -22.48          16.48         -20.22          43.09          116.4
     1.473              -48.85          31.15          51.04          37.36          1.569          10.02         -26.24          15.42          -18.2          41.21          110.6
     1.505              -48.62           31.8          48.78          37.94          1.003          9.042         -30.81          14.14         -15.74          38.91          103.6
     1.536              -48.36          32.54          46.16          38.62          0.347          7.904         -36.11          12.65         -12.89          36.24          95.37
     1.567              -48.07          33.35          43.33          39.35        -0.3631          6.671         -41.85          11.03         -9.798          33.36          86.52
     1.599              -47.79          34.16          40.49          40.09         -1.073          5.439         -47.59          9.419         -6.708          30.47          77.66
      1.63              -47.52          34.91          37.87          40.77         -1.729          4.301         -52.89          7.929         -3.855          27.81          69.48
     1.661               -47.3          35.55          35.61          41.35         -2.295          3.319         -57.47          6.643         -1.393          25.51          62.42
     1.693              -47.11          36.08          33.76          41.83         -2.759          2.513         -61.22          5.588         0.6272          23.62          56.63
     1.724              -46.96           36.5          32.29          42.21         -3.128          1.872         -64.21          4.749          2.234          22.12          52.03
     1.755              -46.84          36.83          31.13          42.51         -3.417          1.371         -66.54          4.093          3.491          20.94          48.42
     1.787              -46.75          37.09          30.23          42.74         -3.643         0.9799         -68.36          3.581          4.472          20.03          45.61
     1.818              -46.68          37.29          29.53          42.93         -3.819         0.6745         -69.79          3.181          5.237          19.31          43.41
     1.849              -46.63          37.44          28.98          43.07         -3.957         0.4343          -70.9          2.866           5.84          18.75          41.69
     1.881              -46.58          37.57          28.54          43.18         -4.067         0.2436         -71.79          2.617          6.318           18.3          40.32
     1.912              -46.55          37.67          28.19          43.27         -4.155        0.09065         -72.51          2.417          6.701          17.95          39.22
     1.943              -46.52          37.75           27.9          43.35         -4.226       -0.03327         -73.08          2.254          7.012          17.66          38.33
     1.975              -46.49          37.82          27.67          43.41         -4.285        -0.1347         -73.56          2.122          7.266          17.42           37.6
     2.006              -46.47          37.87          27.47          43.46         -4.333        -0.2186         -73.95          2.012          7.476          17.22           37.0
